<svg xmlns="http://www.w3.org/2000/svg" viewBox="0 0 700 260" width="700" height="260">
  

  
  <g transform="translate(9,11)" fill="#0C0E12">
    
    <path d="M 56 70 C 56 54, 72 44, 92 44 C 112 44, 128 54, 128 70 L 128 200 C 128 216, 112 226, 92 226 C 72 226, 56 216, 56 200 Z"></path>
    
    <path d="M 152 70 C 152 54, 168 44, 188 44 C 208 44, 218 56, 222 70 L 244 132 L 266 70 C 270 56, 280 44, 300 44 C 320 44, 336 54, 336 70 L 336 200 C 336 216, 320 226, 300 226 C 280 226, 266 216, 266 200 L 266 146 L 256 172 C 254 180, 250 184, 244 184 C 238 184, 234 180, 232 172 L 222 146 L 222 200 C 222 216, 208 226, 188 226 C 168 226, 152 216, 152 200 Z"></path>
    
    <path d="M 360 70 C 360 54, 376 44, 396 44 L 448 44 C 486 44, 510 70, 510 104 C 510 138, 486 164, 448 164 L 424 164 L 424 200 C 424 216, 408 226, 388 226 C 368 226, 360 216, 360 200 Z M 424 92 L 424 116 L 448 116 C 458 116, 464 110, 464 104 C 464 98, 458 92, 448 92 Z" fill-rule="evenodd"></path>
    
    <path d="M 538 78&#xA;             C 554 56, 590 46, 624 52&#xA;             C 644 56, 656 68, 656 82&#xA;             C 656 98, 640 106, 626 102&#xA;             C 612 98, 602 96, 592 96&#xA;             C 578 96, 572 106, 582 114&#xA;             C 592 122, 618 126, 638 136&#xA;             C 660 148, 672 166, 666 190&#xA;             C 660 216, 624 230, 586 224&#xA;             C 552 220, 534 204, 532 188&#xA;             C 530 172, 544 162, 560 166&#xA;             C 576 170, 590 174, 604 174&#xA;             C 618 174, 624 168, 616 162&#xA;             C 608 156, 582 152, 562 144&#xA;             C 540 134, 524 116, 538 78 Z" fill-rule="evenodd"></path>
  </g>

  
  <g fill="#B83A3A" stroke="#0C0E12" stroke-width="6" stroke-linejoin="round">
    <path d="M 56 70 C 56 54, 72 44, 92 44 C 112 44, 128 54, 128 70 L 128 200 C 128 216, 112 226, 92 226 C 72 226, 56 216, 56 200 Z"></path>
    <path d="M 152 70 C 152 54, 168 44, 188 44 C 208 44, 218 56, 222 70 L 244 132 L 266 70 C 270 56, 280 44, 300 44 C 320 44, 336 54, 336 70 L 336 200 C 336 216, 320 226, 300 226 C 280 226, 266 216, 266 200 L 266 146 L 256 172 C 254 180, 250 184, 244 184 C 238 184, 234 180, 232 172 L 222 146 L 222 200 C 222 216, 208 226, 188 226 C 168 226, 152 216, 152 200 Z"></path>
    <path d="M 360 70 C 360 54, 376 44, 396 44 L 448 44 C 486 44, 510 70, 510 104 C 510 138, 486 164, 448 164 L 424 164 L 424 200 C 424 216, 408 226, 388 226 C 368 226, 360 216, 360 200 Z M 424 92 L 424 116 L 448 116 C 458 116, 464 110, 464 104 C 464 98, 458 92, 448 92 Z" fill-rule="evenodd"></path>
    <path d="M 538 78&#xA;             C 554 56, 590 46, 624 52&#xA;             C 644 56, 656 68, 656 82&#xA;             C 656 98, 640 106, 626 102&#xA;             C 612 98, 602 96, 592 96&#xA;             C 578 96, 572 106, 582 114&#xA;             C 592 122, 618 126, 638 136&#xA;             C 660 148, 672 166, 666 190&#xA;             C 660 216, 624 230, 586 224&#xA;             C 552 220, 534 204, 532 188&#xA;             C 530 172, 544 162, 560 166&#xA;             C 576 170, 590 174, 604 174&#xA;             C 618 174, 624 168, 616 162&#xA;             C 608 156, 582 152, 562 144&#xA;             C 540 134, 524 116, 538 78 Z" fill-rule="evenodd"></path>
  </g>

  
  <g fill="#B83A3A" stroke="#0C0E12" stroke-width="5" stroke-linejoin="round">
    <path d="M 62 46 L 72 14 L 84 40 Z"></path>
    <path d="M 100 40 L 112 14 L 122 46 Z"></path>
  </g>

  
  <g fill="#FAF0F0" opacity="0.85">
    <ellipse cx="94" cy="74" rx="14" ry="8"></ellipse>
    <ellipse cx="188" cy="72" rx="14" ry="8"></ellipse>
    <ellipse cx="388" cy="72" rx="14" ry="8"></ellipse>
    <ellipse cx="588" cy="72" rx="16" ry="9"></ellipse>
  </g>
</svg>